<svg xmlns="http://www.w3.org/2000/svg" width="800" height="800" viewBox="0 0 800 800">
  <defs>
    <pattern id="weave" width="16" height="16" patternUnits="userSpaceOnUse" patternTransform="rotate(0)">
      <rect width="16" height="16" fill="#3c3f44"/>
      <path d="M0 0 L16 16 M16 0 L0 16" stroke="#2a2c30" stroke-width="1.5" opacity="0.35"/>
    </pattern>
  </defs>
  <rect width="800" height="800" fill="url(#weave)"/>
  <rect x="36" y="36" width="728" height="728" fill="none" stroke="#7d818a" stroke-width="10"/>
  <rect x="70" y="70" width="660" height="660" fill="none" stroke="#2a2c30" stroke-width="4"/>
  <g fill="none" stroke="#7d818a" stroke-width="6" opacity="0.9">
    <path d="M400 150 L520 280 L400 410 L280 280 Z"/>
    <path d="M400 220 L470 290 L400 360 L330 290 Z" stroke="#2a2c30"/>
    <circle cx="400" cy="290" r="18" fill="#7d818a" stroke="none"/>
  </g>
  <g fill="#7d818a" opacity="0.85">
    <circle cx="160" cy="640" r="10"/>
    <circle cx="240" cy="640" r="10"/>
    <circle cx="640" cy="640" r="10"/>
    <circle cx="560" cy="640" r="10"/>
  </g>
  <g stroke="#2a2c30" stroke-width="5" opacity="0.7" fill="none">
    <path d="M120 560 H680"/>
    <path d="M120 700 H680"/>
  </g>
</svg>